<?xml version="1.0" encoding="UTF-8" standalone="no"?>
<!-- Created with Inkscape (http://www.inkscape.org/) -->

<svg
   xmlns:dc="http://purl.org/dc/elements/1.1/"
   xmlns:cc="http://creativecommons.org/ns#"
   xmlns:rdf="http://www.w3.org/1999/02/22-rdf-syntax-ns#"
   xmlns:svg="http://www.w3.org/2000/svg"
   xmlns="http://www.w3.org/2000/svg"
   xmlns:sodipodi="http://sodipodi.sourceforge.net/DTD/sodipodi-0.dtd"
   xmlns:inkscape="http://www.inkscape.org/namespaces/inkscape"
   width="655"
   height="125.28918"
   id="svg2"
   version="1.1"
   inkscape:version="0.48.4 r9939"
   sodipodi:docname="curvilinea.svg">
  <defs
     id="defs4" />
  <sodipodi:namedview
     id="base"
     pagecolor="#ffffff"
     bordercolor="#666666"
     borderopacity="1.0"
     inkscape:pageopacity="0.0"
     inkscape:pageshadow="2"
     inkscape:zoom="1.1457031"
     inkscape:cx="424.77474"
     inkscape:cy="66.548046"
     inkscape:document-units="px"
     inkscape:current-layer="layer1"
     showgrid="false"
     inkscape:window-width="1920"
     inkscape:window-height="1005"
     inkscape:window-x="1920"
     inkscape:window-y="26"
     inkscape:window-maximized="1"
     borderlayer="false"
     fit-margin-top="0"
     fit-margin-left="0"
     fit-margin-right="0"
     fit-margin-bottom="0">
    <inkscape:grid
       type="xygrid"
       id="grid3790"
       empspacing="5"
       visible="true"
       enabled="true"
       snapvisiblegridlinesonly="true"
       originx="-21.21875px"
       originy="-17.6747px" />
  </sodipodi:namedview>
  <metadata
     id="metadata7">
    <rdf:RDF>
      <cc:Work
         rdf:about="">
        <dc:format>image/svg+xml</dc:format>
        <dc:type
           rdf:resource="http://purl.org/dc/dcmitype/StillImage" />
        <dc:title></dc:title>
      </cc:Work>
    </rdf:RDF>
  </metadata>
  <g
     inkscape:label="Layer 1"
     inkscape:groupmode="layer"
     id="layer1"
     transform="translate(-21.21875,-909.39832)">
    <g
       transform="translate(-267.71495,727.02562)"
       style="font-size:144px;font-style:normal;font-variant:normal;font-weight:normal;font-stretch:normal;text-align:center;line-height:125%;letter-spacing:0px;word-spacing:0px;writing-mode:lr-tb;text-anchor:middle;fill:#000000;fill-opacity:1;stroke:none;font-family:Oxygen;-inkscape-font-specification:Oxygen"
       id="textLeft">
      <path
         id="path3879"
         d="m 592.625,213.02895 0,77.13281 -11.8125,0 0,-77.13281 11.8125,0 m 0,-28.05469 0,13.92188 -11.8125,0 0,-13.92188 11.8125,0 m -66.65625,105.1875 -29.88281,-77.13281 12.58593,0 17.01563,45.84375 c -3e-5,3e-5 2.34372,6.51565 7.03125,19.54687 1.59371,-5.01561 3.79683,-11.48435 6.60937,-19.40625 3.56246,-9.98433 9.0937,-25.31244 16.59375,-45.98437 l 12.51563,0 -29.67188,77.13281 -12.79687,0 m -37.75781,-77.83594 c 2.10933,8e-5 4.0312,0.14071 5.76562,0.42188 l -0.42187,10.82812 c -2.1563,-0.37493 -4.0313,-0.56243 -5.625,-0.5625 -6.56254,7e-5 -11.90628,2.29694 -16.03125,6.89063 -4.07815,4.54693 -6.11721,10.19536 -6.11719,16.94531 l 0,43.3125 -11.74219,0 c -0.0469,-47.3437 -0.0703,-73.05461 -0.0703,-77.13281 l 9.77344,0 1.125,13.85156 c 2.67185,-4.35931 6.07028,-7.87493 10.19531,-10.54687 4.12496,-2.6718 8.50777,-4.00774 13.14844,-4.00782 m -114.60939,52.10157 0,-51.39844 11.8125,0 0,51.53906 c -2e-5,3.37502 0.46873,6.23439 1.40625,8.57813 0.98436,2.34376 2.36717,4.17188 4.14844,5.48437 1.8281,1.26564 3.86716,2.1797 6.11719,2.74219 2.29684,0.56251 4.92184,0.84376 7.875,0.84375 6.0937,10e-6 10.82807,-1.33593 14.20312,-4.00781 3.42182,-2.67186 5.13276,-7.21874 5.13281,-13.64063 l 0,-51.53906 11.8125,0 0,51.39844 c -6e-5,3.93752 -0.56256,7.47658 -1.6875,10.61718 -1.12506,3.14064 -2.6485,5.76564 -4.57031,7.875 -1.87506,2.06251 -4.14849,3.77344 -6.82031,5.13282 -2.67193,1.35937 -5.50786,2.34375 -8.50781,2.95312 -2.95317,0.60937 -6.14067,0.91406 -9.5625,0.91406 -3.37504,0 -6.56253,-0.30469 -9.5625,-0.91406 -3.00003,-0.60937 -5.8594,-1.59375 -8.57813,-2.95312 -2.67189,-1.40625 -4.9922,-3.14062 -6.96094,-5.20313 -1.92188,-2.10937 -3.44532,-4.73436 -4.57031,-7.875 -1.12501,-3.14061 -1.6875,-6.65623 -1.6875,-10.54687 m -32.76562,27.35156 c -11.34378,0 -20.22659,-3.67969 -26.64844,-11.03906 -6.37501,-7.35936 -9.56251,-16.99217 -9.5625,-28.89844 0.0469,-11.99995 3.30468,-21.7265 9.77344,-29.17969 6.5156,-7.49992 15.42184,-11.24992 26.71875,-11.25 3.98433,8e-5 7.82807,0.49227 11.53125,1.47656 3.74994,0.98445 6.70306,2.27352 8.85937,3.86719 l -3.23437,9.14063 c -5.48443,-2.95306 -11.27349,-4.42962 -17.36719,-4.42969 -7.45316,7e-5 -13.3594,2.71881 -17.71875,8.15625 -4.31252,5.43755 -6.46877,12.86723 -6.46875,22.28906 -2e-5,9.18753 2.13279,16.47658 6.39844,21.86719 4.31247,5.34376 10.26559,8.01563 17.85937,8.01562 6.04683,10e-6 12.23432,-1.64061 18.5625,-4.92187 l 1.47656,9.35156 c -5.10943,3.70313 -11.83598,5.55469 -20.17968,5.55469"
         inkscape:connector-curvature="0" />
    </g>
    <g
       transform="translate(-92.714953,727.02562)"
       style="font-size:144px;font-style:normal;font-variant:normal;font-weight:normal;font-stretch:normal;text-align:center;line-height:125%;letter-spacing:0px;word-spacing:0px;writing-mode:lr-tb;text-anchor:middle;fill:#ff0066;fill-opacity:1;stroke:none;font-family:Oxygen;-inkscape-font-specification:Oxygen"
       id="textCenter">
      <path
         id="path3893"
         d="m 462.26562,291.56801 c -7.50002,0 -12.82033,-2.01562 -15.96093,-6.04687 -3.09376,-4.03125 -4.64064,-11.03905 -4.64063,-21.02344 l 0,-81.42188 11.67188,-0.70312 0,77.48437 c -2e-5,3.18753 0.0234,5.74222 0.0703,7.66407 0.0937,1.92189 0.28123,3.82033 0.5625,5.69531 0.28123,1.82814 0.65623,3.21095 1.125,4.14844 0.46873,0.93751 1.14841,1.80469 2.03906,2.60156 0.8906,0.75001 1.94529,1.26563 3.16406,1.54687 1.2656,0.23439 2.81247,0.35157 4.64063,0.35157 1.49997,0 4.45309,-0.28125 8.85937,-0.84375 l 0.63282,9.35156 c -4.82817,0.79687 -8.88285,1.19531 -12.16407,1.19531"
         inkscape:connector-curvature="0" />
    </g>
    <g
       transform="translate(72.285048,727.02562)"
       style="font-size:144px;font-style:normal;font-variant:normal;font-weight:normal;font-stretch:normal;text-align:center;line-height:125%;letter-spacing:0px;word-spacing:0px;writing-mode:lr-tb;text-anchor:middle;fill:#000000;fill-opacity:1;stroke:none;font-family:Oxygen;-inkscape-font-specification:Oxygen"
       id="textRight">
      <path
         id="path3889"
         d="m 543.26562,282.28676 c 5.57809,10e-6 10.47652,-1.52343 14.69532,-4.57031 4.26557,-3.09374 7.00776,-7.24217 8.22656,-12.44531 l 0,-13.00782 c -0.23443,4e-5 -1.66412,0.11723 -4.28906,0.35157 -2.57818,0.23441 -4.26567,0.37503 -5.0625,0.42187 -10.17191,0.89066 -17.27347,2.55472 -21.30469,4.99219 -3.9844,2.43753 -5.97658,6.35159 -5.97656,11.74219 -2e-5,4.12501 1.21873,7.2422 3.65625,9.35156 2.43747,2.10938 5.78903,3.16407 10.05468,3.16406 m 25.52344,7.875 c -0.70318,-3 -1.38287,-6.23437 -2.03906,-9.70312 -4.26568,4.26563 -8.27349,7.21875 -12.02344,8.85937 -3.75004,1.64062 -8.15628,2.46094 -13.21875,2.46094 -7.21877,0 -13.03127,-1.875 -17.4375,-5.625 -4.35938,-3.79687 -6.53907,-9.23436 -6.53906,-16.3125 -10e-6,-7.87497 2.97655,-13.71091 8.92969,-17.50781 5.99998,-3.79684 14.62497,-6.16402 25.875,-7.10157 1.54683,-0.14058 3.86714,-0.32808 6.96093,-0.5625 3.14058,-0.2812 5.48433,-0.49214 7.03125,-0.63281 l 0,-6.82031 c -5e-5,-5.43744 -1.26567,-9.46869 -3.79687,-12.09375 -2.5313,-2.62493 -6.51567,-3.93743 -11.95313,-3.9375 -7.59378,7e-5 -15.25783,1.87507 -22.99218,5.625 -0.23439,-0.56244 -0.84377,-2.17962 -1.82813,-4.85156 -0.98439,-2.71868 -1.50001,-4.12493 -1.54687,-4.21875 3.42186,-1.92181 7.47654,-3.44524 12.16406,-4.57032 4.73434,-1.17179 9.53903,-1.75773 14.41406,-1.75781 9.60933,8e-5 16.52338,2.10945 20.74219,6.32813 4.26556,4.17194 6.39837,11.29693 6.39844,21.375 l 0,51.04687 -9.14063,0 m -80.4375,-62.85937 c -3.42192,-4.12494 -8.13286,-6.18744 -14.13281,-6.1875 -6.00003,6e-5 -10.89847,2.13287 -14.69531,6.39843 -3.7969,4.21881 -6.02346,10.00787 -6.67969,17.36719 l 40.71094,0 c -6e-5,-7.64057 -1.73444,-13.49994 -5.20313,-17.57812 m -11.8125,64.47656 c -11.20315,0 -20.03908,-3.5625 -26.50781,-10.6875 -6.42188,-7.12499 -9.63282,-16.87498 -9.63281,-29.25 -10e-6,-11.95308 3.11718,-21.63275 9.35156,-29.03906 6.23435,-7.45305 14.43747,-11.24993 24.60937,-11.39063 9.56245,8e-5 17.13276,3.28133 22.71094,9.84375 5.62493,6.51569 8.43743,15.23443 8.4375,26.15625 -7e-5,0.56254 -0.0235,1.59379 -0.0703,3.09375 -7e-5,1.50004 -7e-5,2.57816 0,3.23438 l -52.94531,0 c 0.1406,8.76565 2.3906,15.60939 6.75,20.53125 4.40622,4.87501 10.31246,7.3125 17.71875,7.3125 8.1562,0 16.33588,-2.15624 24.53906,-6.46875 l 1.82812,9.49218 c -7.82818,4.78125 -16.75786,7.17188 -26.78906,7.17188 m -115.87501,-1.61719 0,-77.13281 9.84375,0 1.47656,11.03906 c 3.04686,-3.7968 6.84373,-6.84368 11.39063,-9.14062 4.59371,-2.34368 9.53902,-3.51555 14.83594,-3.51563 8.90619,8e-5 15.49212,2.50789 19.75781,7.52344 4.26555,4.96881 6.39836,12.63287 6.39844,22.99219 l 0,48.23437 -11.74219,0 c -6e-5,-30.93747 -0.0235,-47.50776 -0.0703,-49.71094 -0.18756,-6.56244 -1.5235,-11.36712 -4.00782,-14.41406 -2.43755,-3.04681 -6.53911,-4.57024 -12.30468,-4.57031 -6.04692,7e-5 -11.08597,1.45319 -15.11719,4.35937 -4.03128,2.90631 -6.65627,6.67975 -7.875,11.32032 -0.46877,3.14067 -0.70315,6.75004 -0.70313,10.82812 l 0,42.1875 -11.88281,0 m -22.14845,-77.13281 0,77.13281 -11.8125,0 0,-77.13281 11.8125,0 m 0,-28.05469 0,13.92188 -11.8125,0 0,-13.92188 11.8125,0"
         inkscape:connector-curvature="0" />
    </g>
    <path
       style="fill:none;stroke:#ff0066;stroke-width:5;stroke-linecap:square;stroke-linejoin:miter;stroke-miterlimit:4;stroke-opacity:1;stroke-dasharray:none"
       d="m 673.72255,1032.1874 -650.000007,0"
       id="underline"
       inkscape:connector-curvature="0" />
  </g>
</svg>
